<?xml version="1.0" encoding="UTF-8" standalone="no"?>
<svg
   xmlns:dc="http://purl.org/dc/elements/1.1/"
   xmlns:cc="http://creativecommons.org/ns#"
   xmlns:rdf="http://www.w3.org/1999/02/22-rdf-syntax-ns#"
   xmlns:svg="http://www.w3.org/2000/svg"
   xmlns="http://www.w3.org/2000/svg"
   xmlns:sodipodi="http://sodipodi.sourceforge.net/DTD/sodipodi-0.dtd"
   xmlns:inkscape="http://www.inkscape.org/namespaces/inkscape"
   height="16"
   id="Layer_1"
   version="1.1"
   viewBox="0 0 15.999999 16"
   width="16"
   xml:space="preserve"
   inkscape:version="0.91+devel+osxmenu r12922"
   sodipodi:docname="battery-charging.svg"><metadata
     id="metadata4165"><rdf:RDF><cc:Work
         rdf:about=""><dc:format>image/svg+xml</dc:format><dc:type
           rdf:resource="http://purl.org/dc/dcmitype/StillImage" /><dc:title></dc:title></cc:Work></rdf:RDF></metadata><defs
     id="defs4163" /><sodipodi:namedview
     pagecolor="#ffffff"
     bordercolor="#666666"
     borderopacity="1"
     objecttolerance="10"
     gridtolerance="10"
     guidetolerance="10"
     inkscape:pageopacity="0"
     inkscape:pageshadow="2"
     inkscape:window-width="1870"
     inkscape:window-height="1155"
     id="namedview4161"
     showgrid="false"
     fit-margin-top="0"
     fit-margin-left="0"
     fit-margin-right="0"
     fit-margin-bottom="0"
     showguides="true"
     inkscape:guide-bbox="true"
     inkscape:zoom="20"
     inkscape:cx="1.5057236"
     inkscape:cy="0.86957"
     inkscape:window-x="50"
     inkscape:window-y="23"
     inkscape:window-maximized="0"
     inkscape:current-layer="Layer_1"><sodipodi:guide
       position="16.049999,15.95"
       orientation="-0.70710678,0.70710678"
       id="guide4710" /><sodipodi:guide
       position="0.099999994,16"
       orientation="0.70710678,0.70710678"
       id="guide4712" /><sodipodi:guide
       position="8.0999992,8.0000007"
       orientation="1,0"
       id="guide4714" /><sodipodi:guide
       position="8.0999992,8.0000007"
       orientation="0,1"
       id="guide4716" /></sodipodi:namedview><path
     d="m 1.3781194,11.9625 11.9093806,0 c 0.17187,0 0.30937,-0.14064 0.30937,-0.3125 l 0,-1.6875 1.15313,0 c 0.175,0 0.31562,-0.14064 0.31562,-0.3125 l 0,-3.3750004 c 0,-0.17189 -0.14062,-0.3125 -0.31562,-0.3125 l -1.15625,0 0,-1.6875 c 0,-0.17189 -0.13438,-0.3125 -0.30938,-0.3125 l -11.9062506,0 c -0.175,0 -0.3156198,0.14061 -0.3156198,0.3125 l 0,7.3750004 c 0,0.17186 0.1406198,0.3125 0.3156198,0.3125 z m 6.72813,-7.0000004 -0.87188,2.53125 1.92188,0 -3.1375,3.4687504 0.87187,-2.53125 -1.92187,0 3.1375,-3.4687504 z"
     id="path4159"
     inkscape:connector-curvature="0"
     style="stroke-width:0.03125" /></svg>