<?xml version="1.0" ?><!DOCTYPE svg  PUBLIC '-//W3C//DTD SVG 1.1//EN'  'http://www.w3.org/Graphics/SVG/1.1/DTD/svg11.dtd'><svg height="512px" id="Layer_1" style="enable-background:new 0 0 512 512;" version="1.1" viewBox="0 0 512 512" width="512px" xml:space="preserve" xmlns="http://www.w3.org/2000/svg" xmlns:xlink="http://www.w3.org/1999/xlink"><path d="M42.1,384h381.1c5.5,0,9.9-4.5,9.9-10v-54h36.9c5.6,0,10.1-4.5,10.1-10V202c0-5.5-4.5-10-10.1-10H433v-54  c0-5.5-4.3-10-9.9-10H42.1c-5.6,0-10.1,4.5-10.1,10v236C32,379.5,36.5,384,42.1,384z M257.4,160l-27.9,81H291L190.6,352l27.9-81H157  L257.4,160z"/></svg>