<?xml version="1.0" encoding="UTF-8" standalone="no"?>
<svg
   xmlns:dc="http://purl.org/dc/elements/1.1/"
   xmlns:cc="http://creativecommons.org/ns#"
   xmlns:rdf="http://www.w3.org/1999/02/22-rdf-syntax-ns#"
   xmlns:svg="http://www.w3.org/2000/svg"
   xmlns="http://www.w3.org/2000/svg"
   xmlns:sodipodi="http://sodipodi.sourceforge.net/DTD/sodipodi-0.dtd"
   xmlns:inkscape="http://www.inkscape.org/namespaces/inkscape"
   height="16"
   id="Layer_1"
   version="1.1"
   viewBox="0 0 16 16"
   width="16"
   xml:space="preserve"
   inkscape:version="0.91+devel+osxmenu r12922"
   sodipodi:docname="battery-unknown.svg"><metadata
     id="metadata4148"><rdf:RDF><cc:Work
         rdf:about=""><dc:format>image/svg+xml</dc:format><dc:type
           rdf:resource="http://purl.org/dc/dcmitype/StillImage" /><dc:title></dc:title></cc:Work></rdf:RDF></metadata><defs
     id="defs4146" /><sodipodi:namedview
     pagecolor="#ffffff"
     bordercolor="#666666"
     borderopacity="1"
     objecttolerance="10"
     gridtolerance="10"
     guidetolerance="10"
     inkscape:pageopacity="0"
     inkscape:pageshadow="2"
     inkscape:window-width="1870"
     inkscape:window-height="1155"
     id="namedview4144"
     showgrid="false"
     scale-x="0.03125"
     showguides="true"
     inkscape:guide-bbox="true"
     inkscape:zoom="20"
     inkscape:cx="-4.6343748"
     inkscape:cy="13.500781"
     inkscape:window-x="50"
     inkscape:window-y="23"
     inkscape:window-maximized="0"
     inkscape:current-layer="Layer_1"><sodipodi:guide
       position="19.85,18.55"
       orientation="-0.70710678,0.70710678"
       id="guide4150" /><sodipodi:guide
       position="-2.1,15.25"
       orientation="0.70710678,0.70710678"
       id="guide4152" /><sodipodi:guide
       position="7.15,17.7"
       orientation="1,0"
       id="guide4154" /><sodipodi:guide
       position="8.05,8.05"
       orientation="0,1"
       id="guide4156" /></sodipodi:namedview><path
     style="stroke-width:0.03125"
     d="M 1.3496094 3.8886719 C 1.1746094 3.8886719 1.0351563 4.0292919 1.0351562 4.2011719 L 1.0351562 11.576172 C 1.0351562 11.748042 1.1746094 11.888672 1.3496094 11.888672 L 13.259766 11.888672 C 13.431636 11.888672 13.568359 11.748042 13.568359 11.576172 L 13.568359 9.8886719 L 14.722656 9.8886719 C 14.897656 9.8886719 15.037109 9.7480419 15.037109 9.5761719 L 15.037109 6.2011719 C 15.034009 6.0292919 14.89375 5.8886719 14.71875 5.8886719 L 13.566406 5.8886719 L 13.566406 4.2011719 C 13.566406 4.0292919 13.430859 3.8886719 13.255859 3.8886719 L 1.3496094 3.8886719 z M 2.0351562 4.8886719 L 12.566406 4.8886719 L 12.566406 5.8886719 L 12.566406 6.8886719 L 13.572266 6.8886719 L 14.035156 6.8886719 L 14.035156 8.8886719 L 13.572266 8.8886719 L 12.566406 8.8886719 L 12.566406 9.8886719 L 12.566406 10.888672 L 2.0351562 10.888672 L 2.0351562 4.8886719 z M 7.2226562 5.3105469 C 6.4205729 5.3105469 5.9127604 5.7558593 5.6992188 6.6464844 L 6.1660156 6.7207031 C 6.3309462 6.0436198 6.6694878 5.7050781 7.1816406 5.7050781 C 7.4490017 5.7050781 7.6757812 5.796224 7.8632812 5.9785156 C 8.0507813 6.1590712 8.1445312 6.3804253 8.1445312 6.6425781 C 8.1445312 6.937717 7.9385851 7.2710503 7.5253906 7.6425781 C 7.3934462 7.7623698 7.2840712 7.874349 7.1972656 7.9785156 C 7.1121962 8.0809462 7.0496962 8.1749132 7.0097656 8.2617188 C 6.9698351 8.3485243 6.9385851 8.4424913 6.9160156 8.5449219 C 6.8951823 8.6473524 6.8821615 8.7591146 6.8769531 8.8789062 L 6.8769531 9.1660156 L 7.3105469 9.1660156 C 7.3105469 8.9767795 7.3261719 8.8105469 7.3574219 8.6699219 C 7.3886719 8.5275608 7.453342 8.3997396 7.5488281 8.2851562 C 7.6443142 8.1688368 7.7645399 8.0412326 7.9121094 7.9023438 C 8.3825955 7.4631076 8.6191406 7.0412327 8.6191406 6.6367188 C 8.6191406 6.3710937 8.5596788 6.1395399 8.4433594 5.9433594 C 8.3270399 5.7471788 8.1653646 5.593316 7.9570312 5.4804688 C 7.7486979 5.3676215 7.5039063 5.3105469 7.2226562 5.3105469 z M 6.8222656 9.7402344 L 6.8222656 10.400391 L 7.4121094 10.400391 L 7.4121094 9.7402344 L 6.8222656 9.7402344 z "
     id="path4142" /></svg>