<?xml version="1.0" encoding="UTF-8" standalone="no"?>
<svg
   xmlns:dc="http://purl.org/dc/elements/1.1/"
   xmlns:cc="http://creativecommons.org/ns#"
   xmlns:rdf="http://www.w3.org/1999/02/22-rdf-syntax-ns#"
   xmlns:svg="http://www.w3.org/2000/svg"
   xmlns="http://www.w3.org/2000/svg"
   xmlns:sodipodi="http://sodipodi.sourceforge.net/DTD/sodipodi-0.dtd"
   xmlns:inkscape="http://www.inkscape.org/namespaces/inkscape"
   height="16"
   id="Layer_1"
   version="1.1"
   viewBox="0 0 16 16"
   width="16"
   xml:space="preserve"
   inkscape:version="0.91+devel+osxmenu r12922"
   sodipodi:docname="battery-empty.svg"><metadata
     id="metadata4148"><rdf:RDF><cc:Work
         rdf:about=""><dc:format>image/svg+xml</dc:format><dc:type
           rdf:resource="http://purl.org/dc/dcmitype/StillImage" /><dc:title></dc:title></cc:Work></rdf:RDF></metadata><defs
     id="defs4146" /><sodipodi:namedview
     pagecolor="#ffffff"
     bordercolor="#666666"
     borderopacity="1"
     objecttolerance="10"
     gridtolerance="10"
     guidetolerance="10"
     inkscape:pageopacity="0"
     inkscape:pageshadow="2"
     inkscape:window-width="1870"
     inkscape:window-height="1155"
     id="namedview4144"
     showgrid="false"
     scale-x="0.03125"
     showguides="true"
     inkscape:guide-bbox="true"
     inkscape:zoom="20"
     inkscape:cx="3.6796715"
     inkscape:cy="10.706366"
     inkscape:window-x="50"
     inkscape:window-y="23"
     inkscape:window-maximized="0"
     inkscape:current-layer="Layer_1"><sodipodi:guide
       position="16.05,16.05"
       orientation="-0.70710678,0.70710678"
       id="guide4150" /><sodipodi:guide
       position="0,16.1"
       orientation="0.70710678,0.70710678"
       id="guide4152" /><sodipodi:guide
       position="8.05,8.05"
       orientation="1,0"
       id="guide4154" /><sodipodi:guide
       position="8.05,8.05"
       orientation="0,1"
       id="guide4156" /></sodipodi:namedview><path
     d="m 14.719155,5.8893157 -1.15312,0 0,-1.6875 c 0,-0.17188 -0.13438,-0.3125 -0.30938,-0.3125 l -11.90625,0 c -0.175,0 -0.3156199,0.14062 -0.3156199,0.3125 l 0,7.3750003 c 0,0.17187 0.1406199,0.3125 0.3156199,0.3125 l 11.90938,0 c 0.17187,0 0.30937,-0.14063 0.30937,-0.3125 l 0,-1.6875003 1.15313,0 c 0.175,0 0.31562,-0.14063 0.31562,-0.3125 l 0,-3.375 c -0.0031,-0.17188 -0.14375,-0.3125 -0.31875,-0.3125 z m -0.68437,3 -0.4625,0 -1.00625,0 0,1 0,1.0000003 -10.53125,0 0,-6.0000003 10.53125,0 0,1 0,1 1.00625,0 0.4625,0 0,2 z"
     id="path4142"
     inkscape:connector-curvature="0"
     style="stroke-width:0.03125" /></svg>