<?xml version="1.0" encoding="UTF-8" standalone="no"?>
<svg
   xmlns:dc="http://purl.org/dc/elements/1.1/"
   xmlns:cc="http://creativecommons.org/ns#"
   xmlns:rdf="http://www.w3.org/1999/02/22-rdf-syntax-ns#"
   xmlns:svg="http://www.w3.org/2000/svg"
   xmlns="http://www.w3.org/2000/svg"
   xmlns:sodipodi="http://sodipodi.sourceforge.net/DTD/sodipodi-0.dtd"
   xmlns:inkscape="http://www.inkscape.org/namespaces/inkscape"
   height="16"
   id="Layer_1"
   version="1.1"
   viewBox="0 0 15.999999 16"
   width="16"
   xml:space="preserve"
   inkscape:version="0.92.3 (2405546, 2018-03-11)"
   sodipodi:docname="photos.svg"><metadata
     id="metadata4165"><rdf:RDF><cc:Work
         rdf:about=""><dc:format>image/svg+xml</dc:format><dc:type
           rdf:resource="http://purl.org/dc/dcmitype/StillImage" /><dc:title></dc:title></cc:Work></rdf:RDF></metadata><defs
     id="defs4163" /><sodipodi:namedview
     pagecolor="#ffffff"
     bordercolor="#666666"
     borderopacity="1"
     objecttolerance="10"
     gridtolerance="10"
     guidetolerance="10"
     inkscape:pageopacity="0"
     inkscape:pageshadow="2"
     inkscape:window-width="1280"
     inkscape:window-height="1322"
     id="namedview4161"
     showgrid="true"
     fit-margin-top="0"
     fit-margin-left="0"
     fit-margin-right="0"
     fit-margin-bottom="0"
     showguides="true"
     inkscape:guide-bbox="true"
     inkscape:zoom="50"
     inkscape:cx="7.5947374"
     inkscape:cy="7.8787991"
     inkscape:window-x="0"
     inkscape:window-y="30"
     inkscape:window-maximized="0"
     inkscape:current-layer="layer4"
     inkscape:snap-smooth-nodes="true"
     inkscape:snap-midpoints="true"
     inkscape:snap-intersection-paths="true"
     inkscape:object-paths="true"
     inkscape:lockguides="false"><sodipodi:guide
       position="16.049999,15.95"
       orientation="-0.70710678,0.70710678"
       id="guide4710"
       inkscape:locked="false" /><sodipodi:guide
       position="0.099999994,16"
       orientation="0.70710678,0.70710678"
       id="guide4712"
       inkscape:locked="false" /><sodipodi:guide
       position="8.0999992,8.0000007"
       orientation="1,0"
       id="guide4714"
       inkscape:locked="false" /><sodipodi:guide
       position="8.0999992,8.0000007"
       orientation="0,1"
       id="guide4716"
       inkscape:locked="false" /><sodipodi:guide
       position="16.149999,11.3"
       orientation="1,0"
       id="guide4150"
       inkscape:locked="false" /><sodipodi:guide
       position="1.0553832,9.8447466"
       orientation="1,0"
       id="guide4724"
       inkscape:locked="false" /><sodipodi:guide
       position="1.0553832,0.95538423"
       orientation="0,1"
       id="guide4726"
       inkscape:locked="false" /><sodipodi:guide
       position="15.144615,0.95538426"
       orientation="1,0"
       id="guide4728"
       inkscape:locked="false" /><sodipodi:guide
       position="15.144615,15.044616"
       orientation="0,1"
       id="guide4730"
       inkscape:locked="false" /><inkscape:grid
       type="xygrid"
       id="grid842" /></sodipodi:namedview><g
     inkscape:groupmode="layer"
     id="layer4"
     inkscape:label="background"
     style="display:inline"><path
       style="fill:#000000;fill-opacity:1;stroke:none;stroke-width:0.30000001;stroke-linecap:round;stroke-linejoin:round;stroke-miterlimit:4;stroke-dasharray:none;stroke-opacity:1"
       d="M 2.8554688 0.875 C 1.8225971 0.875 0.97460937 1.722988 0.97460938 2.7558594 L 0.97460938 12.880859 L 0.97460938 13.244141 C 0.97460938 14.277012 1.8225974 15.125 2.8554688 15.125 L 13.34375 15.125 C 14.376621 15.125 15.224609 14.277012 15.224609 13.244141 L 15.224609 12.755859 A 0.50005 0.50005 0 0 0 15.224609 12.720703 L 15.224609 2.7558594 C 15.224609 1.722988 14.376621 0.875 13.34375 0.875 L 2.8554688 0.875 z M 2.8554688 1.875 L 13.34375 1.875 C 13.839919 1.875 14.224609 2.2596908 14.224609 2.7558594 L 14.224609 8.9726562 C 14.160296 8.8549397 14.106579 8.7276757 14.037109 8.6152344 C 13.303931 7.4285293 12.258333 6.5 11 6.5 C 10.249499 6.5 9.6302797 6.8258286 9.1738281 7.2636719 C 8.7173765 7.7015151 8.3933322 8.2432163 8.1035156 8.7539062 C 7.813699 9.2645963 7.5552735 9.7486648 7.3066406 10.066406 C 7.0580078 10.384148 6.8817436 10.5 6.6601562 10.5 C 6.4990451 10.5 6.3681165 10.441592 6.1972656 10.300781 C 6.0264147 10.15997 5.8402509 9.939274 5.6484375 9.6933594 C 5.4566241 9.4474447 5.2592359 9.1781119 5.0078125 8.9453125 C 4.7563891 8.7125131 4.4166667 8.5 4 8.5 C 3.1326759 8.5 2.4755202 9.141635 1.9746094 9.9023438 L 1.9746094 2.7558594 C 1.9746094 2.2596908 2.3593 1.875 2.8554688 1.875 z M 6.0996094 3 A 1.5 1.5 0 0 0 4.5996094 4.5 A 1.5 1.5 0 0 0 6.0996094 6 A 1.5 1.5 0 0 0 7.5996094 4.5 A 1.5 1.5 0 0 0 6.0996094 3 z "
       id="path847-6" /></g><g
     inkscape:groupmode="layer"
     id="layer1"
     inkscape:label="frame"
     style="display:none" /><g
     inkscape:groupmode="layer"
     id="layer2"
     inkscape:label="hills"
     style="display:inline" /><g
     inkscape:groupmode="layer"
     id="layer3"
     inkscape:label="sun"><g
       id="g857"
       transform="translate(-1.8999995)"
       style="stroke:#010000;stroke-opacity:1;fill:none"><g
         id="g853"
         style="stroke:#010000;stroke-opacity:1;fill:none" /></g></g></svg>