<?xml version="1.0" encoding="UTF-8" standalone="no"?>
<svg
   xmlns:dc="http://purl.org/dc/elements/1.1/"
   xmlns:cc="http://creativecommons.org/ns#"
   xmlns:rdf="http://www.w3.org/1999/02/22-rdf-syntax-ns#"
   xmlns:svg="http://www.w3.org/2000/svg"
   xmlns="http://www.w3.org/2000/svg"
   xmlns:sodipodi="http://sodipodi.sourceforge.net/DTD/sodipodi-0.dtd"
   xmlns:inkscape="http://www.inkscape.org/namespaces/inkscape"
   height="16"
   id="Layer_1"
   version="1.1"
   viewBox="0 0 15.999999 16"
   width="16"
   xml:space="preserve"
   inkscape:version="0.91+devel+osxmenu r12922"
   sodipodi:docname="workspace-upload.svg"><metadata
     id="metadata4165"><rdf:RDF><cc:Work
         rdf:about=""><dc:format>image/svg+xml</dc:format><dc:type
           rdf:resource="http://purl.org/dc/dcmitype/StillImage" /><dc:title></dc:title></cc:Work></rdf:RDF></metadata><defs
     id="defs4163" /><sodipodi:namedview
     pagecolor="#ffffff"
     bordercolor="#666666"
     borderopacity="1"
     objecttolerance="10"
     gridtolerance="10"
     guidetolerance="10"
     inkscape:pageopacity="0"
     inkscape:pageshadow="2"
     inkscape:window-width="1870"
     inkscape:window-height="1155"
     id="namedview4161"
     showgrid="false"
     fit-margin-top="0"
     fit-margin-left="0"
     fit-margin-right="0"
     fit-margin-bottom="0"
     showguides="true"
     inkscape:guide-bbox="true"
     inkscape:zoom="50"
     inkscape:cx="8.8403381"
     inkscape:cy="8.1887991"
     inkscape:window-x="50"
     inkscape:window-y="23"
     inkscape:window-maximized="0"
     inkscape:current-layer="Layer_1"><sodipodi:guide
       position="16.049999,15.95"
       orientation="-0.70710678,0.70710678"
       id="guide4710" /><sodipodi:guide
       position="0.099999994,16"
       orientation="0.70710678,0.70710678"
       id="guide4712" /><sodipodi:guide
       position="8.0999992,8.0000007"
       orientation="1,0"
       id="guide4714" /><sodipodi:guide
       position="8.0999992,8.0000007"
       orientation="0,1"
       id="guide4716" /><sodipodi:guide
       position="16.149999,11.3"
       orientation="1,0"
       id="guide4150" /><sodipodi:guide
       position="1.0553832,9.8447466"
       orientation="1,0"
       id="guide4724" /><sodipodi:guide
       position="1.0553832,0.95538423"
       orientation="0,1"
       id="guide4726" /><sodipodi:guide
       position="15.144615,0.95538426"
       orientation="1,0"
       id="guide4728" /><sodipodi:guide
       position="15.144615,15.044616"
       orientation="0,1"
       id="guide4730" /></sodipodi:namedview><path
     d="m 11.893658,13.1691 q 0,-0.220117 -0.160856,-0.380972 -0.160854,-0.160854 -0.380971,-0.160854 -0.220117,0 -0.380971,0.160854 -0.160856,0.160855 -0.160856,0.380972 0,0.220116 0.160856,0.380972 0.160854,0.160854 0.380971,0.160854 0.220117,0 0.380971,-0.160854 0.160856,-0.160856 0.160856,-0.380972 z m 2.167304,0 q 0,-0.220117 -0.160854,-0.380972 -0.160855,-0.160854 -0.380972,-0.160854 -0.220116,0 -0.380971,0.160854 -0.160854,0.160855 -0.160854,0.380972 0,0.220116 0.160854,0.380972 0.160855,0.160854 0.380971,0.160854 0.220117,0 0.380972,-0.160854 0.160854,-0.160856 0.160854,-0.380972 z m 1.083653,-1.896394 0,2.709133 q 0,0.338641 -0.237048,0.575691 -0.237051,0.237049 -0.575691,0.237049 l -12.4620095,0 q -0.3386423,0 -0.5756912,-0.237049 -0.2370489,-0.23705 -0.2370489,-0.575691 l 0,-2.709133 q 0,-0.338641 0.2370489,-0.575691 0.2370489,-0.237048 0.5756912,-0.237048 l 3.6149981,0 q 0.1777869,0.474098 0.5968569,0.778874 0.4190687,0.30478 0.9354966,0.30478 l 2.1673065,0 q 0.5164279,0 0.9354964,-0.30478 0.419069,-0.304776 0.596857,-0.778874 l 3.614998,0 q 0.33864,0 0.575691,0.237048 0.237048,0.23705 0.237048,0.575691 z M 12.393154,5.7867133 q -0.143924,0.338641 -0.499496,0.338641 l -2.1673068,0 0,3.7927867 q 0,0.220117 -0.160854,0.380972 -0.1608554,0.160854 -0.3809726,0.160854 l -2.1673065,0 q -0.2201172,0 -0.3809713,-0.160854 Q 6.4753915,10.138258 6.4753915,9.918141 l 0,-3.7927867 -2.1673066,0 q -0.3555725,0 -0.4994949,-0.338641 Q 3.6646662,5.4565368 3.927111,5.2025564 L 7.719896,1.4097714 Q 7.8722856,1.248916 8.1008673,1.248916 q 0.2285844,0 0.3809726,0.1608554 l 3.7927861,3.792785 q 0.262448,0.2539804 0.118521,0.5841569 z"
     id="path4768"
     inkscape:connector-curvature="0"
     style="stroke-width:0.00846604" /></svg>