<?xml version="1.0" encoding="UTF-8" standalone="no"?>
<svg
   xmlns:dc="http://purl.org/dc/elements/1.1/"
   xmlns:cc="http://creativecommons.org/ns#"
   xmlns:rdf="http://www.w3.org/1999/02/22-rdf-syntax-ns#"
   xmlns:svg="http://www.w3.org/2000/svg"
   xmlns="http://www.w3.org/2000/svg"
   xmlns:sodipodi="http://sodipodi.sourceforge.net/DTD/sodipodi-0.dtd"
   xmlns:inkscape="http://www.inkscape.org/namespaces/inkscape"
   height="16"
   id="Layer_1"
   version="1.1"
   viewBox="0 0 15.999999 16"
   width="16"
   xml:space="preserve"
   inkscape:version="0.91+devel+osxmenu r12922"
   sodipodi:docname="workspace-download.svg"><metadata
     id="metadata4165"><rdf:RDF><cc:Work
         rdf:about=""><dc:format>image/svg+xml</dc:format><dc:type
           rdf:resource="http://purl.org/dc/dcmitype/StillImage" /><dc:title></dc:title></cc:Work></rdf:RDF></metadata><defs
     id="defs4163" /><sodipodi:namedview
     pagecolor="#ffffff"
     bordercolor="#666666"
     borderopacity="1"
     objecttolerance="10"
     gridtolerance="10"
     guidetolerance="10"
     inkscape:pageopacity="0"
     inkscape:pageshadow="2"
     inkscape:window-width="1870"
     inkscape:window-height="1155"
     id="namedview4161"
     showgrid="false"
     fit-margin-top="0"
     fit-margin-left="0"
     fit-margin-right="0"
     fit-margin-bottom="0"
     showguides="true"
     inkscape:guide-bbox="true"
     inkscape:zoom="50"
     inkscape:cx="8.8403381"
     inkscape:cy="8.1887991"
     inkscape:window-x="50"
     inkscape:window-y="23"
     inkscape:window-maximized="0"
     inkscape:current-layer="Layer_1"><sodipodi:guide
       position="16.049999,15.95"
       orientation="-0.70710678,0.70710678"
       id="guide4710" /><sodipodi:guide
       position="0.099999994,16"
       orientation="0.70710678,0.70710678"
       id="guide4712" /><sodipodi:guide
       position="8.0999992,8.0000007"
       orientation="1,0"
       id="guide4714" /><sodipodi:guide
       position="8.0999992,8.0000007"
       orientation="0,1"
       id="guide4716" /><sodipodi:guide
       position="16.149999,11.3"
       orientation="1,0"
       id="guide4150" /><sodipodi:guide
       position="1.0553832,9.8447466"
       orientation="1,0"
       id="guide4724" /><sodipodi:guide
       position="1.0553832,0.95538423"
       orientation="0,1"
       id="guide4726" /><sodipodi:guide
       position="15.144615,0.95538426"
       orientation="1,0"
       id="guide4728" /><sodipodi:guide
       position="15.144615,15.044616"
       orientation="0,1"
       id="guide4730" /></sodipodi:namedview><path
     inkscape:connector-curvature="0"
     d="m 11.882171,12.880078 q 0,-0.219898 -0.160702,-0.380601 -0.160693,-0.160691 -0.3806,-0.160691 -0.219898,0 -0.38059,0.160691 -0.160701,0.160703 -0.160701,0.380601 0,0.219899 0.160701,0.380598 0.160692,0.160694 0.38059,0.160694 0.219907,0 0.3806,-0.160694 0.160702,-0.160699 0.160702,-0.380598 z m 2.165176,0 q 0,-0.219898 -0.160698,-0.380601 -0.160696,-0.160691 -0.380595,-0.160691 -0.219905,0 -0.380599,0.160691 -0.160701,0.160703 -0.160701,0.380601 0,0.219899 0.160701,0.380598 0.160694,0.160694 0.380599,0.160694 0.219899,0 0.380595,-0.160694 0.160698,-0.160699 0.160698,-0.380598 z m 1.082587,-1.894528 0,2.706469 q 0,0.338309 -0.236816,0.575129 -0.236816,0.236814 -0.575126,0.236814 l -12.4497713,0 q -0.3383085,0 -0.5751289,-0.236814 -0.2368132,-0.23682 -0.2368132,-0.575129 l 0,-2.706469 q 0,-0.338308 0.2368132,-0.575128 0.2368204,-0.236813 0.5751289,-0.236813 l 3.9328397,0 1.1417966,1.150251 q 0.490549,0.473633 1.150251,0.473633 0.659703,0 1.150251,-0.473633 l 1.150251,-1.150251 3.924382,0 q 0.33831,0 0.575126,0.236813 0.236816,0.23682 0.236816,0.575128 z M 12.381172,6.173103 q 0.143786,0.34677 -0.118411,0.592037 L 8.473707,10.554201 Q 8.321467,10.7149 8.093108,10.7149 q -0.228359,0 -0.380599,-0.160699 L 3.9234481,6.76514 Q 3.6612594,6.519873 3.805038,6.173103 3.9488238,5.8432483 4.3040472,5.8432483 l 2.1651768,0 0,-3.7890609 q 0,-0.2198985 0.160693,-0.380599 0.160701,-0.1606933 0.380599,-0.1606933 l 2.165177,0 q 0.219905,0 0.380599,0.1606933 0.1607,0.1607005 0.1607,0.380599 l 0,3.7890609 2.165179,0 q 0.355221,0 0.499001,0.3298547 z"
     id="path4173"
     style="stroke-width:0.00845772" /></svg>