<?xml version="1.0" encoding="UTF-8" standalone="no"?>
<svg
   xmlns:dc="http://purl.org/dc/elements/1.1/"
   xmlns:cc="http://creativecommons.org/ns#"
   xmlns:rdf="http://www.w3.org/1999/02/22-rdf-syntax-ns#"
   xmlns:svg="http://www.w3.org/2000/svg"
   xmlns="http://www.w3.org/2000/svg"
   xmlns:sodipodi="http://sodipodi.sourceforge.net/DTD/sodipodi-0.dtd"
   xmlns:inkscape="http://www.inkscape.org/namespaces/inkscape"
   enable-background="new 0 0 96 96"
   height="96"
   id="empty"
   version="1.1"
   viewBox="0 0 184 96"
   width="184"
   xml:space="preserve"
   inkscape:version="0.91+devel+osxmenu r12922"
   sodipodi:docname="empty_icon.svg"
   inkscape:export-filename="/Volumes/Portable/Development/VectorC2/vectorc2/photos/static/img/empty_photo.png"
   inkscape:export-xdpi="400"
   inkscape:export-ydpi="400"><metadata
     id="metadata4162"><rdf:RDF><cc:Work
         rdf:about=""><dc:format>image/svg+xml</dc:format><dc:type
           rdf:resource="http://purl.org/dc/dcmitype/StillImage" /><dc:title></dc:title></cc:Work></rdf:RDF></metadata><defs
     id="defs4160" /><sodipodi:namedview
     pagecolor="#ffffff"
     bordercolor="#666666"
     borderopacity="1"
     objecttolerance="10"
     gridtolerance="10"
     guidetolerance="10"
     inkscape:pageopacity="0"
     inkscape:pageshadow="2"
     inkscape:window-width="1869"
     inkscape:window-height="1155"
     id="namedview4158"
     showgrid="false"
     showguides="true"
     inkscape:guide-bbox="true"
     inkscape:zoom="6"
     inkscape:cx="88"
     inkscape:cy="48"
     inkscape:window-x="51"
     inkscape:window-y="23"
     inkscape:window-maximized="0"
     inkscape:current-layer="empty"><sodipodi:guide
       position="-19,92.166667"
       orientation="0,1"
       id="guide4171" /><sodipodi:guide
       position="16.666667,4"
       orientation="0,1"
       id="guide4173" /><sodipodi:guide
       position="4,68"
       orientation="1,0"
       id="guide4175" /><sodipodi:guide
       position="179,32"
       orientation="1,0"
       id="guide4177" /></sodipodi:namedview><path
     d="m 12,16 c 0,-2.21 1.79,-4 4,-4 L 28,12 28,4 16,4 C 9.37,4 4,9.37 4,16 l 0,12 8,0 0,-12 z"
     id="path4142"
     inkscape:connector-curvature="0" /><rect
     height="8"
     width="24"
     x="34.200001"
     y="4"
     id="rect4144" /><rect
     height="24"
     width="8"
     x="4"
     y="36"
     id="rect4146" /><path
     d="m 16,84 c -2.21,0 -4,-1.79 -4,-4 l 0,-12 -8,0 0,12 c 0,6.63 5.37,12 12,12 l 12,0 0,-8 -12,0 z"
     id="path4148"
     inkscape:connector-curvature="0" /><rect
     height="24"
     width="8"
     x="171"
     y="35.833332"
     id="rect4150" /><path
     d="m 166.99998,3.833333 -12,0 0,8 12,0 c 2.21,0 4,1.79 4,4 l 0,12 8,0 0,-12 c 0,-6.63 -5.37,-12 -12,-12 z"
     id="path4152"
     inkscape:connector-curvature="0" /><rect
     height="8"
     width="24"
     x="34.200001"
     y="84"
     id="rect4154" /><path
     d="m 170.99998,79.833333 c 0,2.21 -1.79,4 -4,4 l -12,0 0,8 12,0 c 6.63,0 12,-5.37 12,-12 l 0,-12 -8,0 0,12 z"
     id="path4156"
     inkscape:connector-curvature="0" /><rect
     id="rect4179"
     y="4"
     x="64.400002"
     width="24"
     height="8" /><rect
     id="rect4181"
     y="84"
     x="64.400002"
     width="24"
     height="8" /><rect
     height="8"
     width="24"
     x="94.599998"
     y="4"
     id="rect4183" /><rect
     height="8"
     width="24"
     x="94.599998"
     y="84"
     id="rect4185" /><rect
     id="rect4187"
     y="4"
     x="124.8"
     width="24"
     height="8" /><rect
     id="rect4189"
     y="84"
     x="124.8"
     width="24"
     height="8" /></svg>